<svg width="22" height="22" viewBox="0 0 22 22" fill="none" xmlns="http://www.w3.org/2000/svg">
<path d="M18.8007 3.24431C16.7392 1.17107 13.9947 0.0191345 11.0723 0.000503542C11.048 0 11.0242 0 11 0C8.06184 0 5.29959 1.14421 3.22198 3.22182C1.14421 5.29942 0 8.06184 0 11C0 13.9382 1.14421 16.7006 3.22198 18.7782C5.29959 20.8558 8.06184 22 11 22C11.0242 22 11.048 22 11.0723 21.9995C13.9947 21.9809 16.7392 20.8289 18.8007 18.7557C20.8638 16.6806 22 13.9262 22 11C22 8.07376 20.8638 5.3194 18.8007 3.24431ZM12.0126 15.2735L12.0057 15.2796C11.7145 15.53 11.3572 15.6554 11 15.6554C10.6427 15.6554 10.2855 15.5302 9.99409 15.2796L9.98738 15.2735C7.8559 13.3881 6.17239 11.8988 6.17239 9.98033C6.17239 8.32872 7.46616 7.03513 9.1176 7.03513C9.79318 7.03513 10.4584 7.26474 11 7.67613C11.5415 7.26474 12.2068 7.03513 12.8824 7.03513C14.5338 7.03513 15.8276 8.32889 15.8276 9.98033C15.8276 11.8988 14.1441 13.3881 12.0126 15.2735Z" fill="#596273"/>
</svg>
